<svg width="402" height="178" viewBox="0 0 402 178" fill="none" xmlns="http://www.w3.org/2000/svg">
<path d="M373.202 19.2279L367.758 3.86295C366.792 1.05337 363.719 -0.351426 360.998 0.614369C358.188 1.58016 356.783 4.65315 357.749 7.37494L363.456 23.5301L370.304 27.3932L373.202 19.2279Z" fill="#E42212"/>
<path d="M382.947 23.6179L388.654 7.46283C389.62 4.65324 388.215 1.66806 385.406 0.70226C382.596 -0.263535 379.611 1.14126 378.645 3.95084L373.202 19.3158L376.099 27.5689L382.947 23.6179Z" fill="#EC6606"/>
<path d="M401.298 19.3158C399.805 16.7696 396.556 15.8916 394.01 17.2964L382.947 23.5302L379.962 32.0467L385.757 34.2417L399.278 26.6031C401.824 25.1106 402.702 21.862 401.298 19.3158Z" fill="#E42212"/>
<path d="M378.557 42.9335L390.147 47.3234C390.762 47.5868 391.376 47.6746 391.991 47.6746C394.186 47.6746 396.205 46.3576 396.995 44.2505C398.049 41.5287 396.644 38.4557 393.922 37.4021L385.845 34.3291L378.645 38.3679V42.9335H378.557Z" fill="#EC6606"/>
<path d="M367.934 42.9335V51.3622C367.934 54.2596 370.304 56.718 373.289 56.718C376.187 56.718 378.645 54.3474 378.645 51.3622V42.9335L373.289 40.9141L367.934 42.9335Z" fill="#E42212"/>
<path d="M360.734 34.2412L352.657 37.3142C349.935 38.3678 348.53 41.4408 349.584 44.1626C350.374 46.2698 352.393 47.5867 354.588 47.5867C355.203 47.5867 355.817 47.4989 356.432 47.2355L368.022 42.8456V38.28L360.734 34.2412Z" fill="#E42212"/>
<path d="M363.456 23.618L352.393 17.3842C349.847 15.8916 346.598 16.8574 345.106 19.4036C343.701 21.9498 344.579 25.1984 347.125 26.691L360.734 34.2417L366.529 32.0467L363.456 23.618Z" fill="#EC6606"/>
<path d="M172.053 176.126C190.842 176.126 207.875 168.224 219.991 155.669C228.069 147.328 234.127 136.88 237.2 125.202L258.184 164.536C261.433 170.682 267.754 174.458 274.691 174.458C281.627 174.458 287.948 170.595 291.197 164.536L342.384 68.4837C347.213 59.3525 343.789 48.0264 334.658 43.1096C325.527 38.2806 314.113 41.7048 309.284 50.836L276.271 115.105L274.691 120.373L273.198 115.105L240.185 50.836C235.356 41.7048 223.942 38.1928 214.811 43.1096C205.68 47.9386 202.168 59.3525 207.085 68.4837L219.377 91.6627H181.36C172.755 91.6627 165.731 98.8623 165.731 107.73C165.731 116.598 172.755 123.797 181.36 123.797H200.061C194.969 131.612 186.364 139.162 171.965 139.162C163.624 139.162 156.161 135.738 150.454 129.943C144.835 124.149 141.323 116.071 141.323 107.028C141.323 91.2238 152.122 78.4928 165.556 75.5954C175.477 73.4004 181.799 63.4791 179.604 53.5577C178.287 47.6752 174.336 43.1096 169.243 40.739C161.868 37.4904 152.825 40.739 152.825 40.739C124.466 49.2556 104.359 75.9466 104.359 107.028C104.359 111.066 104.711 115.017 105.325 118.793C99.4427 128.539 88.2921 140.743 69.5908 140.743C51.6797 140.743 36.9294 125.992 36.9294 107.642C36.9294 91.3115 48.6067 77.8782 63.7082 75.0686C63.7082 75.0686 67.4836 74.3662 73.6296 73.8394C79.5122 73.3126 88.0287 66.4643 88.0287 56.1039C88.0287 45.9192 79.7756 37.666 69.5908 37.666C31.1346 37.7538 0.229157 69.1861 0.141357 107.73C0.229157 146.274 31.1346 177.706 69.7664 177.794C90.7505 177.794 109.452 168.487 122.183 153.737C122.183 153.737 140.006 176.126 172.053 176.126Z" fill="#E42212"/>
</svg>
